<!-- Generated by IcoMoon.io -->
<svg version="1.1" xmlns="http://www.w3.org/2000/svg" width="66" height="32" viewBox="0 0 66 32">
<path fill="#2196f3" d="M10.26 9.68h-0.002c-1.872 0-3.389 1.348-3.389 3.012v0.002c0 1.663 1.517 3.012 3.389 3.012h0.002c1.872 0 3.389-1.348 3.389-3.012v-0.002c0-1.663-1.517-3.012-3.389-3.012z"></path>
<path fill="#2196f3" d="M35.274 8.717c-0.005-2.31-1.040-4.524-2.878-6.158s-4.329-2.554-6.929-2.559v0c-2.6 0.004-5.093 0.924-6.932 2.558s-2.874 3.849-2.88 6.16v12.74c0 0 19.616-1.942 19.619-12.738v-0.002z"></path>
<path fill="#2196f3" d="M0 25.639c0.005 1.607 0.725 3.148 2.004 4.285s3.012 1.778 4.821 1.782c1.808-0.005 3.541-0.645 4.82-1.782s2-2.676 2.005-4.283v-8.865c0 0-13.649 1.352-13.649 8.863zM6.825 27.227c-0.353 0-0.699-0.093-0.993-0.268s-0.523-0.423-0.658-0.713c-0.135-0.29-0.171-0.61-0.102-0.918s0.239-0.591 0.489-0.813 0.568-0.373 0.915-0.435c0.347-0.061 0.706-0.030 1.033 0.090s0.606 0.324 0.802 0.585c0.196 0.261 0.301 0.568 0.301 0.882 0.001 0.209-0.045 0.416-0.134 0.61s-0.221 0.369-0.387 0.517c-0.166 0.148-0.363 0.266-0.581 0.346s-0.45 0.121-0.685 0.121v-0.006z"></path>
<path fill="#2196f3" d="M20.619 26.352h-1.317v1.361h-0.686v-3.329h2.168v0.556h-1.482v0.86h1.317v0.553zM23.916 26.124c0 0.328-0.058 0.615-0.174 0.862s-0.282 0.438-0.498 0.572c-0.215 0.134-0.462 0.201-0.741 0.201-0.276 0-0.522-0.066-0.739-0.199s-0.384-0.322-0.503-0.567c-0.119-0.247-0.179-0.53-0.181-0.851v-0.165c0-0.328 0.059-0.616 0.176-0.864 0.119-0.25 0.286-0.441 0.501-0.574 0.216-0.134 0.463-0.201 0.741-0.201s0.524 0.067 0.739 0.201c0.216 0.133 0.383 0.324 0.501 0.574 0.119 0.248 0.178 0.536 0.178 0.862v0.149zM23.221 25.973c0-0.349-0.062-0.614-0.187-0.796s-0.303-0.272-0.535-0.272c-0.23 0-0.408 0.090-0.533 0.27-0.125 0.178-0.188 0.441-0.19 0.787v0.162c0 0.34 0.063 0.604 0.187 0.791s0.305 0.281 0.54 0.281c0.23 0 0.407-0.090 0.53-0.27 0.123-0.181 0.186-0.445 0.187-0.791v-0.162zM26.141 26.839c0-0.13-0.046-0.229-0.137-0.297-0.091-0.070-0.256-0.143-0.494-0.22-0.238-0.078-0.426-0.154-0.565-0.229-0.378-0.204-0.567-0.479-0.567-0.825 0-0.18 0.050-0.34 0.151-0.48 0.102-0.142 0.248-0.252 0.437-0.332 0.191-0.079 0.404-0.119 0.64-0.119 0.238 0 0.45 0.043 0.636 0.13 0.186 0.085 0.33 0.207 0.432 0.364 0.104 0.157 0.155 0.335 0.155 0.535h-0.686c0-0.152-0.048-0.271-0.144-0.354-0.096-0.085-0.231-0.128-0.405-0.128-0.168 0-0.298 0.036-0.391 0.107-0.093 0.070-0.139 0.163-0.139 0.279 0 0.108 0.054 0.199 0.162 0.272 0.11 0.073 0.271 0.142 0.482 0.206 0.39 0.117 0.675 0.263 0.853 0.437s0.268 0.39 0.268 0.649c0 0.288-0.109 0.514-0.327 0.679-0.218 0.163-0.511 0.245-0.88 0.245-0.256 0-0.489-0.047-0.7-0.14-0.21-0.095-0.371-0.223-0.482-0.386-0.11-0.163-0.165-0.352-0.165-0.567h0.688c0 0.367 0.219 0.551 0.659 0.551 0.163 0 0.29-0.033 0.382-0.098 0.091-0.067 0.137-0.16 0.137-0.279zM29.802 24.939h-1.020v2.774h-0.686v-2.774h-1.006v-0.556h2.712v0.556zM32.198 26.27h-1.317v0.892h1.546v0.551h-2.232v-3.329h2.227v0.556h-1.541v0.793h1.317v0.537zM34.062 26.494h-0.547v1.219h-0.686v-3.329h1.237c0.393 0 0.697 0.088 0.91 0.263s0.32 0.423 0.32 0.743c0 0.227-0.049 0.417-0.149 0.569-0.098 0.151-0.246 0.271-0.446 0.361l0.72 1.36v0.032h-0.736l-0.624-1.219zM33.515 25.938h0.553c0.172 0 0.306-0.043 0.4-0.13 0.095-0.088 0.142-0.21 0.142-0.364 0-0.157-0.045-0.28-0.135-0.37-0.088-0.090-0.225-0.135-0.409-0.135h-0.551v0.999zM37.672 26.54v1.173h-0.686v-3.329h1.299c0.25 0 0.47 0.046 0.659 0.137 0.191 0.091 0.337 0.222 0.439 0.391 0.102 0.168 0.153 0.359 0.153 0.574 0 0.326-0.112 0.584-0.336 0.773-0.223 0.187-0.531 0.281-0.926 0.281h-0.601zM37.672 25.984h0.613c0.181 0 0.319-0.043 0.414-0.128 0.096-0.085 0.144-0.207 0.144-0.366 0-0.163-0.048-0.295-0.144-0.396s-0.229-0.152-0.398-0.156h-0.629v1.045zM42.012 26.27h-1.317v0.892h1.546v0.551h-2.232v-3.329h2.227v0.556h-1.541v0.793h1.317v0.537zM45.195 24.939h-1.020v2.774h-0.686v-2.774h-1.006v-0.556h2.712v0.556zM47.591 26.27h-1.317v0.892h1.546v0.551h-2.232v-3.329h2.227v0.556h-1.541v0.793h1.317v0.537zM49.455 26.494h-0.547v1.219h-0.686v-3.329h1.237c0.393 0 0.697 0.088 0.91 0.263s0.32 0.423 0.32 0.743c0 0.227-0.050 0.417-0.149 0.569-0.098 0.151-0.246 0.271-0.446 0.361l0.72 1.36v0.032h-0.736l-0.624-1.219zM48.908 25.938h0.553c0.172 0 0.306-0.043 0.4-0.13 0.095-0.088 0.142-0.21 0.142-0.364 0-0.157-0.045-0.28-0.135-0.37-0.088-0.090-0.225-0.135-0.409-0.135h-0.551v0.999zM52.94 26.839c0-0.13-0.046-0.229-0.137-0.297-0.091-0.070-0.256-0.143-0.494-0.22-0.238-0.078-0.426-0.154-0.565-0.229-0.378-0.204-0.567-0.479-0.567-0.825 0-0.18 0.050-0.34 0.151-0.48 0.102-0.142 0.248-0.252 0.437-0.332 0.191-0.079 0.404-0.119 0.64-0.119 0.238 0 0.45 0.043 0.636 0.13 0.186 0.085 0.33 0.207 0.432 0.364 0.104 0.157 0.155 0.335 0.155 0.535h-0.686c0-0.152-0.048-0.271-0.144-0.354-0.096-0.085-0.231-0.128-0.405-0.128-0.168 0-0.298 0.036-0.391 0.107-0.093 0.070-0.139 0.163-0.139 0.279 0 0.108 0.054 0.199 0.162 0.272 0.11 0.073 0.271 0.142 0.483 0.206 0.39 0.117 0.675 0.263 0.853 0.437s0.267 0.39 0.267 0.649c0 0.288-0.109 0.514-0.327 0.679-0.218 0.163-0.511 0.245-0.88 0.245-0.256 0-0.489-0.047-0.7-0.14-0.21-0.095-0.371-0.223-0.483-0.386-0.11-0.163-0.165-0.352-0.165-0.567h0.688c0 0.367 0.22 0.551 0.659 0.551 0.163 0 0.29-0.033 0.382-0.098 0.091-0.067 0.137-0.16 0.137-0.279z"></path>
</svg>
